<?xml version="1.0" encoding="UTF-8"?>
<svg version="1.1" xmlns="http://www.w3.org/2000/svg" width="500" height="500">
<path d="M0 0 C1.56663054 -0.02157625 3.13314064 -0.05567592 4.69921875 -0.10253906 C6.95700923 -0.16951247 9.21230395 -0.1969898 11.47094727 -0.21606445 C12.16899979 -0.24389511 12.86705231 -0.27172577 13.58625793 -0.30039978 C15.57763672 -0.29199219 15.57763672 -0.29199219 19.04516602 0.4050293 C23.04516602 5.11729857 23.04516602 5.11729857 23.04516602 8.4050293 C23.70516602 8.4050293 24.36516602 8.4050293 25.04516602 8.4050293 C26.19921875 9.8034668 26.19921875 9.8034668 27.47875977 11.7800293 C27.95692139 12.50955811 28.43508301 13.23908691 28.92773438 13.99072266 C29.44086182 14.78744385 29.95398926 15.58416504 30.48266602 16.4050293 C31.57541537 18.07365378 32.6691849 19.74161057 33.76391602 21.40893555 C34.59149414 22.67374756 34.59149414 22.67374756 35.43579102 23.96411133 C37.73817999 27.45611451 40.10323331 30.9027402 42.48266602 34.3425293 C43.37990396 35.64193767 44.27703734 36.94141826 45.17407227 38.2409668 C45.86267334 39.23821777 45.86267334 39.23821777 46.56518555 40.25561523 C49.90693218 45.10892064 53.22397734 49.97925853 56.54296875 54.84814453 C57.05674072 55.60039307 57.5705127 56.3526416 58.09985352 57.12768555 C58.59195313 57.84843262 59.08405273 58.56917969 59.59106445 59.31176758 C61.00431631 61.34622383 62.46121461 63.34256661 63.92797852 65.33862305 C66.04516602 68.4050293 66.04516602 68.4050293 66.04516602 70.4050293 C66.70516602 70.4050293 67.36516602 70.4050293 68.04516602 70.4050293 C69.55297852 72.3737793 69.55297852 72.3737793 71.17016602 74.9050293 C71.70899414 75.7403418 72.24782227 76.5756543 72.80297852 77.4362793 C73.21290039 78.0859668 73.62282227 78.7356543 74.04516602 79.4050293 C74.0429454 78.43005997 74.04072479 77.45509064 74.03843689 76.45057678 C74.01820505 67.28273212 74.00319367 58.11489195 73.99335384 48.94703007 C73.98812512 44.23323197 73.98102768 39.51945183 73.96972656 34.80566406 C73.95889729 30.26047526 73.9528891 25.71530378 73.95028877 21.17010307 C73.9484346 19.43207972 73.94481412 17.69405736 73.93943596 15.95604134 C73.93222498 13.53024335 73.9311751 11.10451784 73.93164062 8.67871094 C73.92804535 7.95294861 73.92445007 7.22718628 73.92074585 6.47943115 C73.93111385 1.51908146 73.93111385 1.51908146 75.04516602 0.4050293 C77.19075428 0.31727325 79.33921023 0.29807711 81.48657227 0.30737305 C82.79174805 0.3105957 84.09692383 0.31381836 85.44165039 0.31713867 C86.83032291 0.32549529 88.21899479 0.33396025 89.60766602 0.3425293 C91.00024257 0.34754264 92.39282083 0.35210583 93.78540039 0.35620117 C97.20536472 0.36803496 100.62524446 0.3845205 104.04516602 0.4050293 C104.06849497 16.81611616 104.08614517 33.22719766 104.09697819 49.63829708 C104.10214115 57.25773103 104.10918386 64.87715469 104.12060547 72.49658203 C104.13055229 79.13531757 104.13701944 85.77404567 104.13925451 92.41278845 C104.14056162 95.93007266 104.14364749 99.44733556 104.15089607 102.96461296 C104.1589099 106.88477868 104.15915715 110.80492329 104.15869141 114.72509766 C104.16228668 115.89969543 104.16588196 117.07429321 104.16958618 118.28448486 C104.16821152 119.34604294 104.16683685 120.40760101 104.16542053 121.50132751 C104.16634233 122.42957305 104.16726412 123.35781858 104.16821384 124.31419277 C104.04516602 126.4050293 104.04516602 126.4050293 103.04516602 127.4050293 C98.88284028 127.81610044 94.71719999 127.93298662 90.53686523 128.02978516 C89.13573924 128.07131796 87.73504689 128.13257081 86.33569336 128.21435547 C74.73416719 128.88118886 74.73416719 128.88118886 70.52270508 125.20043945 C66.04516602 118.93301261 66.04516602 118.93301261 66.04516602 115.4050293 C65.38516602 115.4050293 64.72516602 115.4050293 64.04516602 115.4050293 C62.48657227 113.3425293 62.48657227 113.3425293 60.60766602 110.4050293 C58.14458709 106.60381358 55.66451333 102.83070098 53.07250977 99.1159668 C52.57098389 98.39666992 52.06945801 97.67737305 51.55273438 96.9362793 C50.55529747 95.50966185 49.5548514 94.08514315 48.55126953 92.6628418 C45.04516602 87.62525838 45.04516602 87.62525838 45.04516602 85.4050293 C44.38516602 85.4050293 43.72516602 85.4050293 43.04516602 85.4050293 C41.66235352 83.58862305 41.66235352 83.58862305 39.92016602 80.8425293 C35.65270763 74.27174772 31.21260531 67.83270279 26.73266602 61.4050293 C25.67378174 59.88220337 25.67378174 59.88220337 24.59350586 58.32861328 C21.7938686 54.30971419 18.98444294 50.3240652 16.04516602 46.4050293 C15.71516602 73.1350293 15.38516602 99.8650293 15.04516602 127.4050293 C5.47516602 127.4050293 -4.09483398 127.4050293 -13.95483398 127.4050293 C-14.94701982 124.4284718 -15.08052085 122.48722454 -15.08181763 119.38143921 C-15.08604736 117.82500954 -15.08604736 117.82500954 -15.09036255 116.23713684 C-15.08833832 115.09935287 -15.08631409 113.96156891 -15.08422852 112.78930664 C-15.08598083 111.59078568 -15.08773315 110.39226471 -15.08953857 109.15742493 C-15.0931887 105.87043659 -15.09232903 102.58348843 -15.08915949 99.29650068 C-15.08663024 95.86031477 -15.0889749 92.42413157 -15.09054565 88.98794556 C-15.0923652 83.21941647 -15.08996615 77.45090019 -15.08520508 71.68237305 C-15.07975771 65.00504227 -15.08152941 58.327742 -15.08703148 51.65041196 C-15.09156258 45.92299207 -15.09221334 40.19558138 -15.08959281 34.46816027 C-15.08803068 31.04482245 -15.08783464 27.62149899 -15.0911293 24.19816208 C-15.09454188 20.38608351 -15.08981838 16.57403943 -15.08422852 12.76196289 C-15.08625275 11.62013046 -15.08827698 10.47829803 -15.09036255 9.30186462 C-15.08754272 8.26988449 -15.0847229 7.23790436 -15.08181763 6.1746521 C-15.0814406 5.27242605 -15.08106358 4.3702 -15.08067513 3.44063377 C-14.75162667 -1.88204924 -4.219148 0.04373319 0 0 Z " fill="#E5712E" transform="translate(142.954833984375,185.594970703125)"/>
<path d="M0 0 C2.30373756 0.01067331 4.60668718 0.00007989 6.91040039 -0.01269531 C18.6702315 -0.02422262 30.06703353 0.54192768 41.00610352 5.26074219 C40.61985629 13.64230708 38.48056922 21.27339708 36.00610352 29.26074219 C33.20285234 28.80616092 30.40844037 28.3451098 27.62866211 27.76220703 C11.91375402 24.57079201 -9.30787912 22.79996237 -23.39233398 31.79199219 C-25.52712456 33.32232843 -25.52712456 33.32232843 -27.31030273 34.89355469 C-28.99389648 36.26074219 -28.99389648 36.26074219 -31.14233398 37.27636719 C-33.27951287 38.15833937 -33.27951287 38.15833937 -34.05639648 40.88574219 C-34.36577148 41.99949219 -34.67514648 43.11324219 -34.99389648 44.26074219 C-35.50744844 45.55532109 -36.02867165 46.84687577 -36.55639648 48.13574219 C-38.05178614 52.12344794 -38.73410901 56.01754672 -38.99389648 60.26074219 C-39.04674805 60.98648438 -39.09959961 61.71222656 -39.15405273 62.45996094 C-39.63771518 75.18238622 -36.97856122 86.48833331 -28.43530273 95.99511719 C-20.61293394 103.57362317 -10.82809462 104.71465244 -0.36303711 104.61230469 C0.98918772 104.57890429 2.34140128 104.54504479 3.69360352 104.51074219 C5.08875984 104.49062364 6.48394455 104.47238243 7.87915039 104.45605469 C11.25510584 104.40932866 14.63069966 104.33760148 18.00610352 104.26074219 C18.00610352 96.67074219 18.00610352 89.08074219 18.00610352 81.26074219 C11.40610352 81.26074219 4.80610352 81.26074219 -1.99389648 81.26074219 C-1.99389648 73.01074219 -1.99389648 64.76074219 -1.99389648 56.26074219 C14.17610352 56.26074219 30.34610352 56.26074219 47.00610352 56.26074219 C47.00610352 78.04074219 47.00610352 99.82074219 47.00610352 122.26074219 C21.32301976 132.53397569 -8.45378947 136.62990028 -34.99389648 126.26074219 C-40.22554726 123.7182577 -45.55194774 121.0622239 -49.99389648 117.26074219 C-49.99389648 116.60074219 -49.99389648 115.94074219 -49.99389648 115.26074219 C-50.65389648 115.26074219 -51.31389648 115.26074219 -51.99389648 115.26074219 C-51.99389648 114.60074219 -51.99389648 113.94074219 -51.99389648 113.26074219 C-52.65389648 113.26074219 -53.31389648 113.26074219 -53.99389648 113.26074219 C-53.99389648 112.60074219 -53.99389648 111.94074219 -53.99389648 111.26074219 C-54.65389648 111.26074219 -55.31389648 111.26074219 -55.99389648 111.26074219 C-55.99389648 110.60074219 -55.99389648 109.94074219 -55.99389648 109.26074219 C-56.65389648 109.26074219 -57.31389648 109.26074219 -57.99389648 109.26074219 C-70.95019454 93.11286338 -71.4227031 70.61642993 -69.80786133 51.00097656 C-68.52442778 41.09945664 -63.47176903 31.47755101 -57.99389648 23.26074219 C-57.33389648 23.26074219 -56.67389648 23.26074219 -55.99389648 23.26074219 C-55.99389648 22.60074219 -55.99389648 21.94074219 -55.99389648 21.26074219 C-55.33389648 21.26074219 -54.67389648 21.26074219 -53.99389648 21.26074219 C-53.99389648 20.60074219 -53.99389648 19.94074219 -53.99389648 19.26074219 C-53.33389648 19.26074219 -52.67389648 19.26074219 -51.99389648 19.26074219 C-51.99389648 18.60074219 -51.99389648 17.94074219 -51.99389648 17.26074219 C-51.33389648 17.26074219 -50.67389648 17.26074219 -49.99389648 17.26074219 C-49.77604492 16.67292969 -49.55819336 16.08511719 -49.33374023 15.47949219 C-44.59887428 7.63866461 -31.47418997 4.05114706 -23.04101562 1.72119141 C-15.42279246 -0.10071576 -7.78257379 -0.0428021 0 0 Z " fill="#7C7B79" transform="translate(327.993896484375,183.7392578125)"/>
<path d="M0 0 C0.69738281 0.00902344 1.39476562 0.01804688 2.11328125 0.02734375 C3.82566958 0.05080112 5.53788004 0.08666896 7.25 0.125 C5.6 4.415 3.95 8.705 2.25 13.125 C4.89 13.455 7.53 13.785 10.25 14.125 C9.68585841 18.37695607 7.11443474 21.3527857 4.625 24.6875 C0.68904759 30.0499524 -2.9521225 35.50065629 -6.375 41.2109375 C-6.82875 41.84257812 -7.2825 42.47421875 -7.75 43.125 C-8.41 43.125 -9.07 43.125 -9.75 43.125 C-9.95625 43.785 -10.1625 44.445 -10.375 45.125 C-12.26152871 49.24106263 -14.95567979 52.5837703 -17.75 56.125 C-18.9377384 52.56178481 -18.47190337 51.48960048 -17.3515625 47.9765625 C-17.03703125 46.97109375 -16.7225 45.965625 -16.3984375 44.9296875 C-16.06070312 43.88039063 -15.72296875 42.83109375 -15.375 41.75 C-14.71926841 39.68034718 -14.06555114 37.61005484 -13.4140625 35.5390625 C-13.11967285 34.6207666 -12.8252832 33.7024707 -12.52197266 32.75634766 C-11.77951306 30.22559828 -11.22500658 27.71791507 -10.75 25.125 C-13.06 24.795 -15.37 24.465 -17.75 24.125 C-17.14126836 18.96750447 -16.05193732 14.24413985 -14.4375 9.3125 C-14.13682617 8.31186523 -14.13682617 8.31186523 -13.83007812 7.29101562 C-12.95516898 4.60669686 -12.24263519 2.54676888 -10.06640625 0.68359375 C-6.70924722 -0.12597411 -3.42716719 -0.0842215 0 0 Z " fill="#807F7D" transform="translate(321.75,212.875)"/>
<path d="M0 0 C1.39120471 0.00015906 2.78241534 0.00585033 4.17358398 0.01586914 C4.90463852 0.01728409 5.63569305 0.01869904 6.38890076 0.02015686 C8.73253406 0.02577131 11.07607313 0.03832617 13.41967773 0.05102539 C15.00496282 0.05603853 16.59024939 0.06060176 18.17553711 0.06469727 C22.06945383 0.07574542 25.96329979 0.09301967 29.85717773 0.11352539 C30.51717773 1.43352539 31.17717773 2.75352539 31.85717773 4.11352539 C30.53717773 3.78352539 29.21717773 3.45352539 27.85717773 3.11352539 C18.61717773 3.11352539 9.37717773 3.11352539 -0.14282227 3.11352539 C-0.47282227 43.37352539 -0.80282227 83.63352539 -1.14282227 125.11352539 C-2.13282227 124.78352539 -3.12282227 124.45352539 -4.14282227 124.11352539 C-4.16615143 108.09359002 -4.18380153 92.07366013 -4.19463444 76.05371189 C-4.19979736 68.61588029 -4.20683998 61.17805922 -4.21826172 53.74023438 C-4.22820868 47.25971197 -4.23467572 40.7791972 -4.23691076 34.29866737 C-4.23821785 30.86521997 -4.24130357 27.43179439 -4.24855232 23.99835396 C-4.25656643 20.17158718 -4.2568134 16.34484204 -4.25634766 12.51806641 C-4.25994293 11.37152084 -4.26353821 10.22497528 -4.26724243 9.04368591 C-4.26586777 8.0073703 -4.2644931 6.97105469 -4.26307678 5.90333557 C-4.26399858 4.99721307 -4.26492037 4.09109056 -4.26587009 3.1575098 C-4.06242753 -0.22193568 -3.46754524 0.12525507 0 0 Z " fill="#EAB593" transform="translate(132.142822265625,185.886474609375)"/>
<path d="M0 0 C5.28 0 10.56 0 16 0 C16.02311886 16.41108739 16.04097916 32.8221681 16.05181217 49.23326778 C16.05697514 56.85270173 16.06401784 64.47212539 16.07543945 72.09155273 C16.08538628 78.73028827 16.09185342 85.36901637 16.09408849 92.00775915 C16.09539561 95.52504336 16.09848147 99.04230626 16.10573006 102.55958366 C16.11374389 106.47974938 16.11399114 110.39989399 16.11352539 114.32006836 C16.11712067 115.49466614 16.12071594 116.66926392 16.12442017 117.87945557 C16.1230455 118.94101364 16.12167084 120.00257172 16.12025452 121.09629822 C16.12117631 122.02454375 16.1220981 122.95278929 16.12304783 123.90916348 C16 126 16 126 15 127 C12.78144736 127.08783542 10.56011504 127.10694609 8.33984375 127.09765625 C7.34314415 127.09553383 7.34314415 127.09553383 6.3263092 127.09336853 C4.19666101 127.08775518 2.06711661 127.07520054 -0.0625 127.0625 C-1.50325369 127.05748671 -2.94400903 127.05292351 -4.38476562 127.04882812 C-7.92321102 127.03778145 -11.46159539 127.02050792 -15 127 C-15.33 126.01 -15.66 125.02 -16 124 C-6.1 124.33 3.8 124.66 14 125 C13.9896875 121.23207031 13.979375 117.46414063 13.96875 113.58203125 C13.94869839 92.3769876 14.22689052 71.17371567 14.46356201 49.97033691 C14.52504158 44.43140903 14.58469914 38.89246151 14.64453125 33.35351562 C14.76128439 22.56899098 14.87998529 11.7844888 15 1 C10.05 1 5.1 1 0 1 C0 0.67 0 0.34 0 0 Z " fill="#D29C75" transform="translate(231,186)"/>
<path d="M0 0 C0.721875 0.845625 1.44375 1.69125 2.1875 2.5625 C4.73609463 5.34894155 4.73609463 5.34894155 7.8125 4.8125 C8.534375 4.544375 9.25625 4.27625 10 4 C9.43450607 7.93053185 8.28617442 10.53407537 6.0625 13.8125 C5.53785156 14.60269531 5.01320313 15.39289063 4.47265625 16.20703125 C3.98667969 16.79871094 3.50070312 17.39039063 3 18 C2.34 18 1.68 18 1 18 C0.79375 18.66 0.5875 19.32 0.375 20 C-1.51152871 24.11606263 -4.20567979 27.4587703 -7 31 C-8.1877384 27.43678481 -7.72190337 26.36460048 -6.6015625 22.8515625 C-6.12976563 21.34335937 -6.12976563 21.34335937 -5.6484375 19.8046875 C-5.14183594 18.23074219 -5.14183594 18.23074219 -4.625 16.625 C-3.96926841 14.55534718 -3.31555114 12.48505484 -2.6640625 10.4140625 C-2.36967285 9.4957666 -2.0752832 8.5774707 -1.77197266 7.63134766 C-1.02951306 5.10059828 -0.47500658 2.59291507 0 0 Z " fill="#8B8A86" transform="translate(311,238)"/>
<path d="M0 0 C10.89 0 21.78 0 33 0 C33.66 1.32 34.32 2.64 35 4 C34.47889648 3.83701416 33.95779297 3.67402832 33.42089844 3.50610352 C30.32636846 2.85917324 27.42746404 2.88847603 24.265625 2.90234375 C22.32236328 2.90717773 22.32236328 2.90717773 20.33984375 2.91210938 C18.97656183 2.92046402 17.61328058 2.92892896 16.25 2.9375 C14.87109535 2.94251832 13.49218896 2.94708065 12.11328125 2.95117188 C8.74216882 2.96295898 5.3710789 2.98089439 2 3 C1.67 11.58 1.34 20.16 1 29 C0.67 29 0.34 29 0 29 C0 19.43 0 9.86 0 0 Z " fill="#D59567" transform="translate(129,186)"/>
<path d="M0 0 C0.33 0 0.66 0 1 0 C1 10.23 1 20.46 1 31 C-8.9 31 -18.8 31 -29 31 C-29.33 30.01 -29.66 29.02 -30 28 C-20.1 28.33 -10.2 28.66 0 29 C0 19.43 0 9.86 0 0 Z " fill="#E28F60" transform="translate(245,282)"/>
<path d="M0 0 C1.65322266 0.01740234 1.65322266 0.01740234 3.33984375 0.03515625 C4.99693359 0.04869141 4.99693359 0.04869141 6.6875 0.0625 C7.54214844 0.07410156 8.39679688 0.08570313 9.27734375 0.09765625 C9.27734375 0.42765625 9.27734375 0.75765625 9.27734375 1.09765625 C5.64734375 1.42765625 2.01734375 1.75765625 -1.72265625 2.09765625 C-2.05265625 24.20765625 -2.38265625 46.31765625 -2.72265625 69.09765625 C-3.05265625 69.09765625 -3.38265625 69.09765625 -3.72265625 69.09765625 C-3.74578214 60.24883235 -3.76357259 51.40001878 -3.77446842 42.5511713 C-3.77969671 38.4427134 -3.78679338 34.33427611 -3.7980957 30.22583008 C-3.8089265 26.26418797 -3.81493349 22.30256573 -3.81753349 18.34090996 C-3.81938739 16.82617314 -3.82300735 15.31143746 -3.82838631 13.79670906 C-3.83559932 11.68223812 -3.83664708 9.56785031 -3.83618164 7.45336914 C-3.83840225 6.24757706 -3.84062286 5.04178497 -3.84291077 3.79945374 C-3.68060171 0.15280324 -3.65157593 0.13097475 0 0 Z " fill="#F9BDA6" transform="translate(220.72265625,185.90234375)"/>
<path d="M0 0 C5.1711115 4.54431011 8.44663108 10.15281368 12 16 C11.01 16.66 10.02 17.32 9 18 C8.67 17.01 8.34 16.02 8 15 C7.34 15 6.68 15 6 15 C5.54625 13.865625 5.0925 12.73125 4.625 11.5625 C3.42904194 7.95278308 3.42904194 7.95278308 1 7 C0.59270772 4.67843403 0.25561323 2.3431213 0 0 Z " fill="#E38B53" transform="translate(196,237)"/>
<path d="M0 0 C0.33 0.99 0.66 1.98 1 3 C-0.65234375 5.69921875 -0.65234375 5.69921875 -2.9375 8.6875 C-3.68902344 9.68136719 -4.44054687 10.67523438 -5.21484375 11.69921875 C-5.80394531 12.45847656 -6.39304687 13.21773437 -7 14 C-7.33 12.68 -7.66 11.36 -8 10 C-7.34 10 -6.68 10 -6 10 C-6.33 9.01 -6.66 8.02 -7 7 C-4.66666667 2.33333333 -4.66666667 2.33333333 -2 1 C-1.34 1.33 -0.68 1.66 0 2 C0 1.34 0 0.68 0 0 Z " fill="#9C9C96" transform="translate(331,227)"/>
<path d="M0 0 C3.33557632 2.9905167 5.15083921 5.93184627 7 10 C6.34 10 5.68 10 5 10 C5 9.34 5 8.68 5 8 C3.68 7.67 2.36 7.34 1 7 C0.67 7.66 0.34 8.32 0 9 C-0.84454356 5.62182575 -1.10844919 3.32534757 0 0 Z " fill="#E4935E" transform="translate(179,212)"/>
<path d="M0 0 C1.65 0 3.3 0 5 0 C5 1.98 5 3.96 5 6 C2.69 5.34 0.38 4.68 -2 4 C-1.34 2.68 -0.68 1.36 0 0 Z " fill="#878680" transform="translate(295,306)"/>
<path d="M0 0 C1.9375 0.3125 1.9375 0.3125 4 1 C4.33 1.99 4.66 2.98 5 4 C5.680625 4.45375 6.36125 4.9075 7.0625 5.375 C9 7 9 7 9.25 9.6875 C9.1675 10.450625 9.085 11.21375 9 12 C7.5 10.625 7.5 10.625 6 9 C6 8.34 6 7.68 6 7 C5.34 7 4.68 7 4 7 C2.02 3.535 2.02 3.535 0 0 Z " fill="#DF9D72" transform="translate(203,294)"/>
<path d="M0 0 C0.66 0 1.32 0 2 0 C2 0.66 2 1.32 2 2 C2.62390625 2.07089844 3.2478125 2.14179688 3.890625 2.21484375 C6 3 6 3 7.046875 5.06640625 C7.27890625 5.89011719 7.5109375 6.71382813 7.75 7.5625 C7.99234375 8.38878906 8.2346875 9.21507812 8.484375 10.06640625 C8.65453125 10.70449219 8.8246875 11.34257812 9 12 C7.62437146 10.71034824 6.29233607 9.37310707 5 8 C5 7.34 5 6.68 5 6 C4.34 6 3.68 6 3 6 C2.01 4.02 1.02 2.04 0 0 Z " fill="#DD9A70" transform="translate(183,265)"/>
<path d="M0 0 C3.39417765 3.12621626 5.6062718 5.56541027 7 10 C4.0625 8.9375 4.0625 8.9375 1 7 C0.125 3.3125 0.125 3.3125 0 0 Z " fill="#E2976B" transform="translate(196,237)"/>
<path d="M0 0 C0.99 0.66 1.98 1.32 3 2 C2.45773019 5.79588866 0.79872437 7.47211993 -2 10 C-1.34 6.7 -0.68 3.4 0 0 Z " fill="#9C9892" transform="translate(305,259)"/>
<path d="M0 0 C3.08089673 2.77280706 4.68775452 5.06326356 6 9 C5.34 9.66 4.68 10.32 4 11 C4 9.68 4 8.36 4 7 C3.34 7 2.68 7 2 7 C0 4 0 4 0 0 Z " fill="#E7A275" transform="translate(168,196)"/>
<path d="M0 0 C2.97 0 5.94 0 9 0 C9.66 1.32 10.32 2.64 11 4 C7.30099992 3.11223998 3.65449539 2.05418136 0 1 C0 0.67 0 0.34 0 0 Z " fill="#E4AA7F" transform="translate(153,186)"/>
<path d="M0 0 C1.32 0.33 2.64 0.66 4 1 C4 1.99 4 2.98 4 4 C4.99 4.33 5.98 4.66 7 5 C6.67 6.32 6.34 7.64 6 9 C4.02 6.03 2.04 3.06 0 0 Z " fill="#E09F73" transform="translate(159,231)"/>
<path d="M0 0 C0.66 0.33 1.32 0.66 2 1 C1.40844669 2.31823302 0.80128537 3.62947051 0.1875 4.9375 C-0.31716797 6.03384766 -0.31716797 6.03384766 -0.83203125 7.15234375 C-2 9 -2 9 -5 10 C-3.66511872 6.40608886 -2.03977277 3.24509304 0 0 Z " fill="#ABABA8" transform="translate(270,207)"/>
<path d="M0 0 C0.99 0 1.98 0 3 0 C3.185625 0.9590625 3.185625 0.9590625 3.375 1.9375 C3.684375 2.9584375 3.684375 2.9584375 4 4 C4.66 4.33 5.32 4.66 6 5 C5.67 6.32 5.34 7.64 5 9 C4.16094435 7.87926138 3.32892169 6.75325453 2.5 5.625 C2.0359375 4.99851562 1.571875 4.37203125 1.09375 3.7265625 C0 2 0 2 0 0 Z " fill="#E19968" transform="translate(192,277)"/>
<path d="M0 0 C0.66 0.66 1.32 1.32 2 2 C1.625 5.125 1.625 5.125 1 8 C-0.37562854 6.71034824 -1.70766393 5.37310707 -3 4 C-3 3.34 -3 2.68 -3 2 C-2.01 2 -1.02 2 0 2 C0 1.34 0 0.68 0 0 Z " fill="#E19763" transform="translate(180,254)"/>
<path d="M0 0 C0.99 0.33 1.98 0.66 3 1 C2.67 2.32 2.34 3.64 2 5 C1.34 5 0.68 5 0 5 C-0.33 5.99 -0.66 6.98 -1 8 C-0.67 5.36 -0.34 2.72 0 0 Z " fill="#9A9997" transform="translate(260,227)"/>
</svg>
